<svg width="20" height="20" viewBox="0 0 20 20" fill="none" xmlns="http://www.w3.org/2000/svg">
<path d="M18.0583 11.9167L17.725 16.0834C17.6 17.3584 17.5 18.3334 15.2417 18.3334H4.75833C2.5 18.3334 2.4 17.3584 2.275 16.0834L1.94167 11.9167C1.875 11.225 2.09167 10.5834 2.48333 10.0917C2.49167 10.0834 2.49167 10.0834 2.5 10.075C2.95833 9.51669 3.65 9.16669 4.425 9.16669H15.575C16.35 9.16669 17.0333 9.51669 17.4833 10.0584C17.4917 10.0667 17.5 10.075 17.5 10.0834C17.9083 10.575 18.1333 11.2167 18.0583 11.9167Z" stroke="#525866" stroke-width="1.5" stroke-miterlimit="10"/>
<path opacity="0.4" d="M2.91667 9.52498V5.23332C2.91667 2.39998 3.625 1.69165 6.45833 1.69165H7.51667C8.575 1.69165 8.81667 2.00832 9.21667 2.54165L10.275 3.95832C10.5417 4.30832 10.7 4.52498 11.4083 4.52498H13.5333C16.3667 4.52498 17.075 5.23332 17.075 8.06665V9.55832" stroke="#525866" stroke-width="1.5" stroke-miterlimit="10" stroke-linecap="round" stroke-linejoin="round"/>
<path opacity="0.4" d="M7.85833 14.1667H12.1417" stroke="#525866" stroke-width="1.5" stroke-miterlimit="10" stroke-linecap="round" stroke-linejoin="round"/>
</svg>
