<svg width="108" height="108" viewBox="0 0 108 108" fill="none" xmlns="http://www.w3.org/2000/svg">
<rect width="108" height="108" rx="54" fill="#F2F5F8"/>
<path d="M94.1351 79.5406C94.1351 79.5406 89.7567 79.5555 89.7567 83.9189C89.7567 79.5555 85.3784 79.5406 85.3784 79.5406C85.3784 79.5406 89.7567 79.5256 89.7567 75.1622C89.7567 79.5256 94.1351 79.5406 94.1351 79.5406Z" fill="white" stroke="#99A0AE" stroke-linecap="round" stroke-linejoin="round"/>
<path d="M17.5135 18.973C17.5135 18.973 13.1351 18.9879 13.1351 23.3513C13.1351 18.9879 8.75677 18.973 8.75677 18.973C8.75677 18.973 13.1351 18.9581 13.1351 14.5946C13.1351 18.9581 17.5135 18.973 17.5135 18.973Z" fill="white" stroke="#99A0AE" stroke-linecap="round" stroke-linejoin="round"/>
<rect x="19.6819" y="33.0223" width="51.2758" height="57.4641" rx="4.46724" fill="#E1E4EA" stroke="#99A0AE" stroke-linejoin="round"/>
<rect x="24.5188" y="26.218" width="51.2758" height="57.4641" rx="4.46724" fill="#F2F5F8" stroke="#99A0AE" stroke-linejoin="round"/>
<rect x="30.5801" y="33.0224" width="39.1529" height="38.7951" fill="#E1E4EA" stroke="#99A0AE" stroke-linejoin="round"/>
<rect x="30.5801" y="33.0223" width="39.1529" height="38.7951" fill="white" stroke="#99A0AE" stroke-linejoin="round"/>
<ellipse cx="50.2133" cy="46.4976" rx="7.77161" ry="8.08247" fill="#99A0AE" stroke="#99A0AE" stroke-miterlimit="10"/>
<path d="M66.9551 71.3785C66.9551 69.1725 66.5206 66.9881 65.6764 64.95C64.8323 62.9119 63.5949 61.0601 62.035 59.5002C60.4752 57.9404 58.6233 56.703 56.5853 55.8588C54.5472 55.0146 52.3628 54.5801 50.1568 54.5801C47.9508 54.5801 45.7664 55.0146 43.7284 55.8588C41.6903 56.703 39.8384 57.9404 38.2786 59.5002C36.7187 61.0601 35.4814 62.9119 34.6372 64.95C33.793 66.9881 33.3585 69.1725 33.3585 71.3785L66.9551 71.3785Z" fill="#99A0AE" stroke="#99A0AE" stroke-miterlimit="10"/>
<path d="M65.0571 40.8221L75.7942 43.6991L71.2454 60.6755L67.7042 52.4173L60.5083 57.7985L65.0571 40.8221Z" fill="white" stroke="#99A0AE" stroke-linejoin="round"/>
<path d="M86.5312 40.8221L75.7941 43.6991L80.3429 60.6755L83.8841 52.4173L91.08 57.7985L86.5312 40.8221Z" fill="white" stroke="#99A0AE" stroke-linejoin="round"/>
<path d="M72.6696 13.6027C74.0789 11.2332 77.5095 11.2332 78.9189 13.6027C79.8517 15.171 81.8025 15.8048 83.479 15.0843C86.0119 13.9958 88.7874 16.0123 88.5348 18.7576C88.3677 20.5747 89.5733 22.2341 91.3531 22.6367C94.0421 23.2448 95.1022 26.5076 93.2843 28.5801C92.081 29.9519 92.081 32.0031 93.2843 33.3749C95.1022 35.4475 94.0421 38.7102 91.3531 39.3184C89.5733 39.7209 88.3677 41.3804 88.5348 43.1975C88.7874 45.9428 86.0119 47.9592 83.479 46.8707C81.8025 46.1502 79.8517 46.7841 78.9189 48.3524C77.5095 50.7218 74.0789 50.7218 72.6696 48.3524C71.7367 46.7841 69.7859 46.1502 68.1094 46.8707C65.5765 47.9592 62.8011 45.9428 63.0536 43.1975C63.2208 41.3804 62.0151 39.7209 60.2353 39.3184C57.5463 38.7102 56.4862 35.4475 58.3042 33.3749C59.5074 32.0031 59.5074 29.9519 58.3042 28.5801C56.4862 26.5076 57.5463 23.2448 60.2353 22.6367C62.0151 22.2341 63.2208 20.5747 63.0536 18.7576C62.8011 16.0123 65.5765 13.9958 68.1094 15.0843C69.7859 15.8048 71.7367 15.171 72.6696 13.6027Z" fill="#E1E4EA" stroke="#99A0AE"/>
<ellipse cx="75.7943" cy="30.9774" rx="11.9458" ry="11.9458" fill="white" stroke="#99A0AE"/>
<path d="M68.595 27.7232L70.482 29.5978L68.5408 31.5519C68.3429 31.7511 68.344 32.0731 68.5432 32.2711C68.7425 32.469 69.0645 32.4679 69.2624 32.2687L71.562 29.9538C71.76 29.7545 71.7589 29.4325 71.5596 29.2346L69.3118 27.0016C69.1126 26.8037 68.7905 26.8048 68.5926 27.004C68.3946 27.2033 68.3957 27.5253 68.595 27.7232Z" fill="#99A0AE"/>
<path d="M82.5332 26.9577L80.3002 29.2055C80.2058 29.3005 80.152 29.4316 80.1524 29.5656C80.1529 29.6995 80.2076 29.8303 80.3026 29.9247L82.6174 32.2242C82.8167 32.4222 83.1387 32.4211 83.3366 32.2219C83.5346 32.0226 83.5335 31.7006 83.3343 31.5026L81.3802 29.5615L83.2548 27.6745C83.4527 27.4752 83.4516 27.1532 83.2524 26.9553C83.0531 26.7573 82.7311 26.7584 82.5332 26.9577Z" fill="#99A0AE"/>
<path d="M72.329 36.1635L79.5835 36.1395C79.8644 36.1386 80.0913 35.9101 80.0904 35.6293C80.0895 35.3484 79.861 35.1215 79.5801 35.1224L72.3256 35.1464C72.0448 35.1474 71.8178 35.3758 71.8188 35.6567C71.8197 35.9375 72.0481 36.1645 72.329 36.1635Z" fill="#99A0AE"/>
</svg>
