<svg width="134" height="134" viewBox="0 0 134 134" fill="none" xmlns="http://www.w3.org/2000/svg">
<path d="M64.0278 2.29989C65.6167 0.535873 68.3833 0.535871 69.9722 2.29989L72.525 5.13427C73.8415 6.5959 76.0253 6.88341 77.6752 5.81231L80.8747 3.73524C82.866 2.44255 85.5384 3.15862 86.6165 5.27375L88.3488 8.67228C89.2421 10.4248 91.2771 11.2678 93.148 10.6602L96.7761 9.48198C99.0341 8.74871 101.43 10.132 101.924 12.4541L102.718 16.1852C103.127 18.1093 104.874 19.4502 106.839 19.3475L110.648 19.1485C113.019 19.0246 114.975 20.9809 114.852 23.3518L114.652 27.1611C114.55 29.1255 115.891 30.873 117.815 31.2823L121.546 32.076C123.868 32.5699 125.251 34.9659 124.518 37.2239L123.34 40.852C122.732 42.7229 123.575 44.7579 125.328 45.6512L128.726 47.3835C130.841 48.4616 131.557 51.134 130.265 53.1253L128.188 56.3248C127.117 57.9747 127.404 60.1585 128.866 61.475L131.7 64.0278C133.464 65.6167 133.464 68.3833 131.7 69.9722L128.866 72.525C127.404 73.8415 127.117 76.0253 128.188 77.6752L130.265 80.8747C131.557 82.866 130.841 85.5384 128.726 86.6165L125.328 88.3488C123.575 89.2421 122.732 91.2771 123.34 93.148L124.518 96.7761C125.251 99.0341 123.868 101.43 121.546 101.924L117.815 102.718C115.891 103.127 114.55 104.874 114.652 106.839L114.852 110.648C114.975 113.019 113.019 114.975 110.648 114.852L106.839 114.652C104.874 114.55 103.127 115.891 102.718 117.815L101.924 121.546C101.43 123.868 99.0341 125.251 96.7761 124.518L93.148 123.34C91.2771 122.732 89.2421 123.575 88.3488 125.328L86.6165 128.726C85.5384 130.841 82.866 131.557 80.8747 130.265L77.6752 128.188C76.0253 127.117 73.8415 127.404 72.525 128.866L69.9722 131.7C68.3833 133.464 65.6167 133.464 64.0278 131.7L61.475 128.866C60.1585 127.404 57.9747 127.117 56.3248 128.188L53.1253 130.265C51.134 131.557 48.4616 130.841 47.3835 128.726L45.6512 125.328C44.7579 123.575 42.7229 122.732 40.852 123.34L37.2239 124.518C34.9659 125.251 32.5699 123.868 32.076 121.546L31.2823 117.815C30.873 115.891 29.1255 114.55 27.1611 114.652L23.3518 114.852C20.9809 114.975 19.0246 113.019 19.1485 110.648L19.3475 106.839C19.4502 104.874 18.1093 103.127 16.1852 102.718L12.4541 101.924C10.132 101.43 8.74871 99.0341 9.48198 96.7761L10.6602 93.148C11.2678 91.2771 10.4248 89.2421 8.67228 88.3488L5.27375 86.6165C3.15862 85.5384 2.44255 82.866 3.73524 80.8747L5.81231 77.6752C6.88341 76.0253 6.59591 73.8415 5.13427 72.525L2.2999 69.9722C0.535873 68.3833 0.535871 65.6167 2.29989 64.0278L5.13427 61.475C6.5959 60.1585 6.88341 57.9747 5.81231 56.3248L3.73525 53.1253C2.44255 51.134 3.15862 48.4616 5.27375 47.3835L8.67228 45.6512C10.4248 44.7579 11.2678 42.7229 10.6602 40.852L9.48198 37.2239C8.74871 34.9659 10.132 32.5699 12.4541 32.076L16.1852 31.2823C18.1093 30.873 19.4502 29.1255 19.3475 27.1611L19.1485 23.3518C19.0246 20.9809 20.9809 19.0246 23.3518 19.1485L27.1611 19.3475C29.1255 19.4502 30.873 18.1093 31.2823 16.1852L32.076 12.4541C32.5699 10.132 34.9659 8.74871 37.2239 9.48198L40.852 10.6602C42.7229 11.2678 44.7579 10.4248 45.6512 8.67228L47.3835 5.27375C48.4616 3.15862 51.134 2.44255 53.1253 3.73524L56.3248 5.81231C57.9747 6.88341 60.1585 6.59591 61.475 5.13427L64.0278 2.29989Z" fill="#B0D6FF"/>
</svg>
