<svg width="320" height="156" viewBox="0 0 320 156" fill="none" xmlns="http://www.w3.org/2000/svg">
<path d="M0 26V0H26.6667M0 26V52M0 26H26.6667M0 52V78M0 52H26.6667M0 78V104M0 78H26.6667M0 104V130M0 104H26.6667M0 130V156H26.6667M0 130H26.6667M26.6667 0V26M26.6667 0H53.3333M26.6667 26V52M26.6667 26H53.3333M26.6667 52V78M26.6667 52H53.3333M26.6667 78V104M26.6667 78H53.3333M26.6667 104V130M26.6667 104H53.3333M26.6667 130V156M26.6667 130H53.3333M26.6667 156H53.3333M53.3333 0V26M53.3333 0H80M53.3333 26V52M53.3333 26H80M53.3333 52V78M53.3333 52H80M53.3333 78V104M53.3333 78H80M53.3333 104V130M53.3333 104H80M53.3333 130V156M53.3333 130H80M53.3333 156H80M80 0V26M80 0H106.667M80 26V52M80 26H106.667M80 52V78M80 52H106.667M80 78V104M80 78H106.667M80 104V130M80 104H106.667M80 130V156M80 130H106.667M80 156H106.667M106.667 0V26M106.667 0H133.333M106.667 26V52M106.667 26H133.333M106.667 52V78M106.667 52H133.333M106.667 78V104M106.667 78H133.333M106.667 104V130M106.667 104H133.333M106.667 130V156M106.667 130H133.333M106.667 156H133.333M133.333 0V26M133.333 0H160M133.333 26V52M133.333 26H160M133.333 52V78M133.333 52H160M133.333 78V104M133.333 78H160M133.333 104V130M133.333 104H160M133.333 130V156M133.333 130H160M133.333 156H160M160 0V26M160 0H186.667M160 26V52M160 26H186.667M160 52V78M160 52H186.667M160 78V104M160 78H186.667M160 104V130M160 104H186.667M160 130V156M160 130H186.667M160 156H186.667M186.667 0V26M186.667 0H213.333M186.667 26V52M186.667 26H213.333M186.667 52V78M186.667 52H213.333M186.667 78V104M186.667 78H213.333M186.667 104V130M186.667 104H213.333M186.667 130V156M186.667 130H213.333M186.667 156H213.333M213.333 0V26M213.333 0H240M213.333 26V52M213.333 26H240M213.333 52V78M213.333 52H240M213.333 78V104M213.333 78H240M213.333 104V130M213.333 104H240M213.333 130V156M213.333 130H240M213.333 156H240M240 0V26M240 0H266.667M240 26V52M240 26H266.667M240 52V78M240 52H266.667M240 78V104M240 78H266.667M240 104V130M240 104H266.667M240 130V156M240 130H266.667M240 156H266.667M266.667 0V26M266.667 0H293.333M266.667 26V52M266.667 26H293.333M266.667 52V78M266.667 52H293.333M266.667 78V104M266.667 78H293.333M266.667 104V130M266.667 104H293.333M266.667 130V156M266.667 130H293.333M266.667 156H293.333M293.333 0V26M293.333 0H320V26M293.333 26V52M293.333 26H320M293.333 52V78M293.333 52H320M293.333 78V104M293.333 78H320M293.333 104V130M293.333 104H320M293.333 130V156M293.333 130H320M293.333 156H320V130M320 26V52M320 52V78M320 78V104M320 104V130" stroke="url(#paint0_radial_1688_14357)" stroke-opacity="0.24"/>
<defs>
<radialGradient id="paint0_radial_1688_14357" cx="0" cy="0" r="1" gradientUnits="userSpaceOnUse" gradientTransform="translate(160 78) rotate(90) scale(78 129.665)">
<stop stop-color="#717784"/>
<stop offset="1" stop-color="#717784" stop-opacity="0"/>
</radialGradient>
</defs>
</svg>
