<svg width="44" height="44" viewBox="0 0 44 44" fill="none" xmlns="http://www.w3.org/2000/svg">
<path d="M2.75 21.9972C2.75 32.6271 11.3697 41.2475 22.0007 41.2475C32.6317 41.2475 41.25 32.6271 41.25 21.9972C41.25 11.3646 32.6317 2.7475 22.0007 2.7475C11.3697 2.7475 2.75 11.3646 2.75 21.9972Z" fill="url(#paint0_linear_1497_18979)"/>
<path fill-rule="evenodd" clip-rule="evenodd" d="M27.013 34.5472C27.5177 34.0611 30.4797 31.2088 32.1834 29.33C33.8071 27.5345 34.6237 25.2243 34.477 22.8287C34.3263 20.3616 33.1749 18.0768 31.2325 16.399C28.0246 13.6253 22.8398 13.6817 19.6749 16.5221C18.5204 17.5566 17.2164 18.9757 17.1607 19.0365C16.3285 19.9415 16.39 21.3505 17.2934 22.1823C18.1982 23.0127 19.6031 22.9537 20.4375 22.0497C20.4487 22.0364 21.6515 20.7274 22.6439 19.8388C24.3101 18.343 26.9749 18.6022 28.3241 19.7687C29.352 20.6559 29.9592 21.8385 30.0362 23.0984C30.1087 24.2874 29.6997 25.4396 28.8869 26.3372C27.2813 28.1116 24.3255 30.9559 23.917 31.3489C23.8882 31.3766 23.8722 31.3921 23.87 31.3943C22.9824 32.2446 22.95 33.6515 23.7999 34.5418C24.2367 34.9983 24.8202 35.2295 25.4084 35.2295C25.9599 35.2295 26.5134 35.0242 26.9433 34.6142C26.9528 34.6051 26.9764 34.5823 27.013 34.5472ZM13.0389 27.4418C14.6176 28.8071 16.6741 29.4885 18.7334 29.4885C20.8601 29.4885 22.9894 28.7627 24.5962 27.3192C25.6549 26.3684 26.8419 25.0955 27.0725 24.8482C27.0932 24.8261 27.1062 24.8122 27.1106 24.8075C27.9424 23.9025 27.8821 22.4924 26.978 21.6616C26.075 20.8286 24.6667 20.8867 23.8355 21.7926C23.8351 21.7931 23.833 21.7953 23.8294 21.7993C23.7345 21.9017 22.5828 23.1464 21.6282 24.0049C19.9611 25.4979 17.2972 25.2424 15.9463 24.0733C14.9197 23.1855 14.3125 22.0026 14.2348 20.7417C14.1623 19.5538 14.572 18.4043 15.3848 17.5032C17.1047 15.6052 20.3682 12.48 20.4017 12.4483C21.2897 11.5989 21.32 10.19 20.472 9.30073C19.6219 8.41262 18.2152 8.37864 17.3276 9.22921L17.313 9.2432C17.0386 9.50647 13.8726 12.5436 12.0897 14.5134C10.4634 16.308 9.65018 18.6179 9.79396 21.0126C9.94582 23.481 11.0973 25.7643 13.0389 27.4418Z" fill="white"/>
<defs>
<linearGradient id="paint0_linear_1497_18979" x1="2.75" y1="41.2475" x2="2.75" y2="2.7475" gradientUnits="userSpaceOnUse">
<stop stop-color="#2255FF"/>
<stop offset="1" stop-color="#00AAFF"/>
</linearGradient>
</defs>
</svg>
