<svg width="108" height="108" viewBox="0 0 108 108" fill="none" xmlns="http://www.w3.org/2000/svg">
<rect width="108" height="108" rx="54" fill="#F2F5F8"/>
<path d="M31.0259 24.4623C30.9539 24.7392 30.828 24.9869 30.6384 25.2239C30.3557 25.5771 29.9165 25.9031 29.3358 26.1388C28.7571 26.3747 28.0442 26.5157 27.2653 26.5152C26.7022 26.5153 26.1052 26.4425 25.499 26.2861C24.2119 25.9562 23.1442 25.3084 22.4507 24.5746C21.9058 24.0004 20.9985 23.9767 20.4244 24.5216C19.8502 25.0666 19.8265 25.9738 20.3714 26.548C21.4805 27.7134 23.0054 28.6018 24.7834 29.0621C25.6211 29.278 26.4563 29.3818 27.2653 29.3819C28.7566 29.3802 30.1638 29.0336 31.3358 28.3383C31.9206 27.99 32.4459 27.551 32.873 27.0197C33.3 26.4895 33.6255 25.8644 33.8019 25.178C33.9995 24.4114 33.5383 23.6298 32.7717 23.4322C32.0051 23.2346 31.2235 23.6958 31.0259 24.4623Z" fill="#99A0AE"/>
<path d="M27.6136 37.6984C27.5416 37.9754 27.4157 38.223 27.2261 38.46C26.9434 38.8132 26.5042 39.1393 25.9235 39.375C25.3448 39.6108 24.6319 39.7518 23.853 39.7513C23.29 39.7514 22.6929 39.6786 22.0868 39.5223C20.7996 39.1924 19.732 38.5446 19.0385 37.8107C18.4935 37.2365 17.5863 37.2128 17.0121 37.7578C16.4379 38.3028 16.4142 39.21 16.9592 39.7842C18.0683 40.9496 19.5932 41.838 21.3711 42.2983C22.2089 42.5142 23.0441 42.618 23.853 42.6181C25.3444 42.6163 26.7516 42.2698 27.9236 41.5745C28.5083 41.2262 29.0337 40.7871 29.4608 40.2558C29.8877 39.7256 30.2133 39.1005 30.3896 38.4142C30.5873 37.6476 30.126 36.866 29.3595 36.6684C28.5929 36.4707 27.8112 36.9319 27.6136 37.6984Z" fill="#99A0AE"/>
<path d="M23.9929 51.7429C23.9209 52.0198 23.795 52.2674 23.6054 52.5045C23.3226 52.8577 22.8835 53.1837 22.3028 53.4194C21.7241 53.6553 21.0112 53.7963 20.2323 53.7958C19.6692 53.7958 19.0722 53.7231 18.466 53.5667C17.1788 53.2368 16.1112 52.589 15.4177 51.8552C14.8728 51.281 13.9655 51.2573 13.3913 51.8022C12.8172 52.3472 12.7934 53.2544 13.3384 53.8286C14.4475 54.994 15.9724 55.8824 17.7504 56.3427C18.5881 56.5586 19.4233 56.6624 20.2323 56.6625C21.7236 56.6608 23.1308 56.3142 24.3028 55.6189C24.8875 55.2706 25.4129 54.8316 25.84 54.3002C26.2669 53.7701 26.5925 53.145 26.7688 52.4586C26.9665 51.692 26.5052 50.9104 25.7387 50.7128C24.9721 50.5152 24.1905 50.9763 23.9929 51.7429Z" fill="#99A0AE"/>
<path d="M87.6604 33.2557L39.7032 20.7818C36.595 19.9733 33.42 21.8376 32.6116 24.9457L20.1376 72.9029C19.3292 76.011 21.1935 79.186 24.3016 79.9945L72.2588 92.4684C75.3669 93.2768 78.5419 91.4126 79.3504 88.3045L91.8243 40.3473C92.6327 37.2391 90.7685 34.0641 87.6604 33.2557Z" fill="#E1E4EA" stroke="#99A0AE" stroke-miterlimit="10" stroke-linejoin="round"/>
<path d="M86.8355 33.8228L75.3965 77.8023C73.9204 82.517 69.2499 85.6589 64.1663 85.0455C63.8345 85.0055 63.5066 84.9503 63.1858 84.8806L62.3855 84.6743C62.3641 84.6688 62.3427 84.6633 62.3221 84.6547C57.5767 83.1968 54.4098 78.5101 55.0218 73.4065C55.7126 67.6685 60.9249 63.575 66.6637 64.2628L22.2812 58.4308L22.2781 58.43C22.0283 58.3754 21.7723 58.3322 21.5132 58.3013C19.9116 58.1067 18.3645 58.4213 17.035 59.1177L27.6212 18.4205C28.4291 15.3124 31.6043 13.4465 34.7117 14.2573L82.6692 26.7317C85.7774 27.5395 87.6433 30.7146 86.8355 33.8228Z" fill="white" stroke="#99A0AE" stroke-miterlimit="10" stroke-linejoin="round"/>
<path d="M62.3221 84.6547L19.9089 73.6227C19.8317 73.6191 19.7552 73.6124 19.6765 73.6019C15.4482 73.095 12.4372 69.2565 12.9433 65.0313C13.2579 62.4084 14.856 60.2532 17.035 59.1177C18.3646 58.4212 19.9117 58.1066 21.5132 58.3012C21.7724 58.3322 22.0284 58.3754 22.2782 58.43L22.2813 58.4308L66.6638 64.2627C60.9249 63.5749 55.7127 67.6684 55.0218 73.4064C54.4098 78.51 57.5767 83.1967 62.3221 84.6547Z" fill="#CACFD8" stroke="#99A0AE" stroke-miterlimit="10" stroke-linejoin="round"/>
<path d="M62.3855 84.6743L63.1858 84.8806C62.9139 84.8235 62.6481 84.755 62.3855 84.6743Z" stroke="#99A0AE" stroke-miterlimit="10" stroke-linejoin="round"/>
<path d="M75.3965 77.8023L75.6634 76.7798C75.5897 77.1289 75.5022 77.468 75.3965 77.8023Z" stroke="#99A0AE" stroke-miterlimit="10" stroke-linejoin="round"/>
<path d="M22.4508 24.5746C22.1181 24.2244 21.8713 23.8575 21.7127 23.5053C21.5537 23.152 21.4815 22.8173 21.4814 22.5046C21.4815 22.3393 21.5013 22.1787 21.5428 22.0176C21.6148 21.7406 21.7407 21.493 21.9303 21.256C22.213 20.9028 22.6522 20.5768 23.2329 20.341C23.8116 20.1052 24.5245 19.9642 25.3034 19.9647C25.8664 19.9646 26.4635 20.0374 27.0696 20.1938C28.329 20.5167 29.3784 21.1434 30.0724 21.8581C30.4203 22.2145 30.679 22.59 30.8451 22.9508C31.0117 23.3127 31.0872 23.6556 31.0873 23.9753C31.0872 24.1407 31.0674 24.3012 31.0259 24.4624C30.8283 25.2289 31.2895 26.0106 32.0561 26.2081C32.8227 26.4057 33.6043 25.9446 33.8019 25.178C33.9045 24.7801 33.9542 24.3754 33.9541 23.9753C33.9542 23.1975 33.7679 22.4422 33.4482 21.7498C32.9666 20.7096 32.193 19.8016 31.2263 19.0628C30.2582 18.3248 29.0903 17.7546 27.7854 17.4178C26.9476 17.2019 26.1124 17.098 25.3035 17.098C23.8121 17.0997 22.4049 17.4463 21.2329 18.1416C20.6482 18.4899 20.1228 18.9289 19.6957 19.4602C19.2688 19.9904 18.9432 20.6155 18.7669 21.3019C18.6642 21.6997 18.6146 22.1044 18.6147 22.5045C18.6146 23.2651 18.7927 24.0044 19.0997 24.6841C19.407 25.3647 19.8417 25.9895 20.3715 26.548C20.9164 27.1222 21.8237 27.1459 22.3978 26.6009C22.972 26.056 22.9957 25.1488 22.4508 24.5746Z" fill="#99A0AE"/>
<path d="M19.0385 37.8107C18.7058 37.4605 18.459 37.0936 18.3004 36.7414C18.1414 36.3881 18.0692 36.0534 18.069 35.7407C18.0692 35.5754 18.089 35.4148 18.1305 35.2537C18.2025 34.9768 18.3283 34.7291 18.5179 34.4921C18.8007 34.1388 19.2399 33.8129 19.8206 33.5772C20.3993 33.3413 21.1121 33.2003 21.8911 33.2008C22.4541 33.2007 23.0512 33.2735 23.6573 33.4299C24.9167 33.7528 25.966 34.3795 26.6601 35.0942C27.008 35.4506 27.2666 35.8261 27.4327 36.1869C27.5994 36.5488 27.6749 36.8917 27.675 37.2114C27.6749 37.3768 27.655 37.5374 27.6136 37.6985C27.416 38.465 27.8772 39.2467 28.6438 39.4443C29.4103 39.6418 30.1919 39.1807 30.3895 38.4141C30.4922 38.0163 30.5418 37.6116 30.5417 37.2114C30.5418 36.4336 30.3556 35.6783 30.0358 34.9859C29.5542 33.9457 28.7806 33.0377 27.814 32.299C26.8458 31.561 25.6779 30.9908 24.373 30.6539C23.5353 30.438 22.7001 30.3341 21.8911 30.3341C20.3998 30.3358 18.9926 30.6824 17.8206 31.3777C17.2358 31.726 16.7104 32.165 16.2833 32.6964C15.8564 33.2266 15.5309 33.8516 15.3545 34.538C15.2519 34.9358 15.2023 35.3405 15.2023 35.7407C15.2022 36.5012 15.3804 37.2406 15.6873 37.9202C15.9947 38.6009 16.4294 39.2257 16.9591 39.7841C17.5041 40.3583 18.4113 40.382 18.9855 39.8371C19.5597 39.2921 19.5834 38.3849 19.0385 37.8107Z" fill="#99A0AE"/>
<path d="M15.4178 51.8552C15.0851 51.505 14.8383 51.1381 14.6797 50.7859C14.5207 50.4326 14.4485 50.0979 14.4483 49.7852C14.4485 49.6199 14.4683 49.4593 14.5098 49.2982C14.5818 49.0212 14.7076 48.7736 14.8972 48.5366C15.18 48.1833 15.6192 47.8573 16.1999 47.6216C16.7786 47.3857 17.4914 47.2447 18.2704 47.2453C18.8334 47.2452 19.4304 47.318 20.0366 47.4743C21.296 47.7972 22.3453 48.424 23.0394 49.1386C23.3873 49.495 23.6459 49.8705 23.812 50.2313C23.9787 50.5932 24.0542 50.9362 24.0543 51.2559C24.0542 51.4212 24.0343 51.5818 23.9929 51.7429C23.7953 52.5095 24.2565 53.2911 25.0231 53.4887C25.7896 53.6863 26.5713 53.2251 26.7689 52.4585C26.8715 52.0607 26.9211 51.656 26.9211 51.2559C26.9212 50.4781 26.7349 49.7227 26.4151 49.0304C25.9336 47.9902 25.16 47.0821 24.1933 46.3434C23.2252 45.6054 22.0573 45.0352 20.7523 44.6984C19.9146 44.4824 19.0794 44.3786 18.2704 44.3785C16.7791 44.3803 15.3719 44.7268 14.1999 45.4221C13.6152 45.7704 13.0898 46.2095 12.6627 46.7408C12.2357 47.271 11.9102 47.8961 11.7339 48.5824C11.6312 48.9803 11.5816 49.385 11.5817 49.7851C11.5816 50.5457 11.7597 51.285 12.0666 51.9646C12.374 52.6453 12.8087 53.2701 13.3385 53.8286C13.8835 54.4028 14.7907 54.4265 15.3649 53.8815C15.9391 53.3365 15.9627 52.4293 15.4178 51.8552Z" fill="#99A0AE"/>
<path d="M42.2101 25.0682L45.7281 31.03L39.5884 34.6529" fill="white"/>
<path d="M41.2532 25.6328L44.2065 30.6377L39.0237 33.696C38.4952 34.0078 38.3196 34.6891 38.6315 35.2176C38.9433 35.7461 39.6246 35.9217 40.1531 35.6098L46.2928 31.9869C46.8213 31.6751 46.9969 30.9938 46.685 30.4653L43.1671 24.5035C42.8552 23.975 42.174 23.7993 41.6455 24.1112C41.117 24.4231 40.9413 25.1044 41.2532 25.6328Z" fill="#99A0AE"/>
<path d="M71.7037 32.6716L65.7418 36.1896L69.3647 42.3293" fill="white"/>
<path d="M71.139 31.7147L65.1772 35.2326C64.9252 35.3813 64.7389 35.6288 64.6659 35.9122C64.5929 36.1955 64.6362 36.5022 64.7849 36.7542L68.4078 42.8939C68.7196 43.4224 69.4009 43.598 69.9294 43.2862C70.4579 42.9743 70.6335 42.2931 70.3217 41.7646L67.2635 36.5818L72.2684 33.6286C72.7969 33.3167 72.9725 32.6355 72.6606 32.107C72.3488 31.5785 71.6675 31.4028 71.139 31.7147Z" fill="#99A0AE"/>
<path d="M43.8995 47.7732L59.2476 51.73C59.8419 51.8832 60.4477 51.5257 60.6009 50.9315C60.7541 50.3373 60.3966 49.7314 59.8024 49.5782L44.4542 45.6214C43.86 45.4682 43.2541 45.8257 43.1009 46.4199C42.9478 47.0142 43.3053 47.6201 43.8995 47.7732Z" fill="#99A0AE"/>
<path d="M94.5 17.25C94.5 17.25 89.25 17.2679 89.25 22.5C89.25 17.2679 84 17.25 84 17.25C84 17.25 89.25 17.2321 89.25 12C89.25 17.2321 94.5 17.25 94.5 17.25Z" stroke="#99A0AE" stroke-linecap="round" stroke-linejoin="round"/>
<path d="M15 87C15 87 10.5 87.0153 10.5 91.5C10.5 87.0153 6 87 6 87C6 87 10.5 86.9847 10.5 82.5C10.5 86.9847 15 87 15 87Z" stroke="#99A0AE" stroke-linecap="round" stroke-linejoin="round"/>
<path d="M71.2152 79.5931L70.6379 79.9874C67.4013 82.2051 62.9848 81.3754 60.7702 78.142C58.5525 74.9084 59.3759 70.4919 62.6125 68.2742L63.1898 67.8799L71.2152 79.5931Z" fill="#E1E4EA" stroke="#99A0AE" stroke-miterlimit="10" stroke-linejoin="round"/>
<path d="M100.591 52.1413L99.5125 59.6021C99.4494 60.0311 99.2096 60.416 98.85 60.662L73.0418 78.3407L71.2153 79.5931L63.1898 67.8799L65.0163 66.6275L90.8245 48.9489C91.1842 48.7028 91.629 48.6176 92.0517 48.7154L99.3989 50.4032C100.188 50.583 100.708 51.34 100.591 52.1413Z" fill="white" stroke="#99A0AE" stroke-miterlimit="10" stroke-linejoin="round"/>
</svg>
